<svg width="1200" height="630" viewBox="0 0 1200 630" fill="none" xmlns="http://www.w3.org/2000/svg">
  <rect width="1200" height="630" fill="#102a43"/>
  <!-- Subtle music notes background -->
  <g opacity="0.06" fill="white">
    <g transform="translate(100,80) scale(2)">
      <path d="M9 19V6l12-3v13M9 19c0 1.105-1.343 2-3 2s-3-.895-3-2 1.343-2 3-2 3 .895 3 2zm12-3c0 1.105-1.343 2-3 2s-3-.895-3-2 1.343-2 3-2 3 .895 3 2z"/>
    </g>
    <g transform="translate(950,100) scale(2.5) rotate(15)">
      <path d="M12 3v10.55A4 4 0 1014 17V7h4V3h-6z"/>
    </g>
    <g transform="translate(200,450) scale(2) rotate(-10)">
      <path d="M12 3v10.55A4 4 0 1014 17V7h4V3h-6z"/>
    </g>
    <g transform="translate(850,400) scale(1.8)">
      <path d="M9 19V6l12-3v13M9 19c0 1.105-1.343 2-3 2s-3-.895-3-2 1.343-2 3-2 3 .895 3 2zm12-3c0 1.105-1.343 2-3 2s-3-.895-3-2 1.343-2 3-2 3 .895 3 2z"/>
    </g>
    <g transform="translate(500,500) scale(2.2) rotate(5)">
      <path d="M12 3v10.55A4 4 0 1014 17V7h4V3h-6z"/>
    </g>
  </g>
  <!-- Gold accent line -->
  <rect x="100" y="230" width="80" height="4" rx="2" fill="#c9952e"/>
  <!-- Title -->
  <text x="100" y="290" font-family="Georgia, serif" font-size="56" font-weight="bold" fill="white">Sandycove School</text>
  <text x="100" y="355" font-family="Georgia, serif" font-size="56" font-weight="bold" fill="white">of Music</text>
  <!-- Subtitle -->
  <text x="100" y="415" font-family="Inter, system-ui, sans-serif" font-size="24" fill="#9fb3c8">Piano Lessons in Dun Laoghaire, Co. Dublin</text>
  <!-- Gold accent bottom -->
  <rect x="0" y="610" width="1200" height="20" fill="#c9952e"/>
  <!-- Music note icon -->
  <g transform="translate(1020,260) scale(4)" fill="#c9952e">
    <path d="M12 3v10.55A4 4 0 1014 17V7h4V3h-6z"/>
  </g>
</svg>
